<?xml version="1.0" standalone="no"?>
<!DOCTYPE svg PUBLIC "-//W3C//DTD SVG 20010904//EN"
 "http://www.w3.org/TR/2001/REC-SVG-20010904/DTD/svg10.dtd">
<svg version="1.0" xmlns="http://www.w3.org/2000/svg"
 width="1772.000000pt" height="1772.000000pt" viewBox="0 0 1772.000000 1772.000000"
 preserveAspectRatio="xMidYMid meet">
<metadata>
Created by potrace 1.11, written by Peter Selinger 2001-2013
</metadata>
<g transform="translate(0.000000,1772.000000) scale(0.100000,-0.100000)"
fill="#000000" stroke="none">
<path d="M10591 17345 c-28 -193 4 -438 78 -583 27 -53 76 -109 112 -128 28
-14 28 -14 39 23 19 60 24 247 11 357 -14 109 -39 229 -72 338 l-21 68 -68 0
-68 0 -11 -75z"/>
<path d="M13381 16960 c-64 -30 -170 -143 -303 -325 -64 -88 -126 -170 -138
-183 -12 -13 -20 -24 -19 -25 2 -1 18 -9 34 -17 17 -9 36 -28 43 -43 12 -25
17 -27 45 -21 105 23 205 100 337 263 87 108 128 147 195 186 25 15 45 30 45
33 0 4 -14 31 -31 60 -51 89 -118 112 -208 72z"/>
<path d="M7854 15658 c-12 -27 -19 -65 -19 -106 l0 -64 58 -18 c48 -15 162
-73 372 -190 17 -9 54 -25 83 -34 92 -31 231 -9 240 37 6 31 -45 121 -99 175
-65 65 -150 107 -314 157 -66 20 -156 47 -201 61 -44 13 -85 24 -91 24 -5 0
-19 -19 -29 -42z"/>
<path d="M10295 15386 c-171 -40 -319 -139 -440 -296 -95 -124 -175 -334 -190
-503 -35 -374 46 -822 250 -1392 84 -234 216 -565 290 -730 13 -27 57 -131
100 -230 42 -99 86 -200 98 -225 77 -171 181 -438 217 -557 12 -40 25 -73 28
-73 3 0 65 44 136 98 72 54 230 169 351 255 388 277 826 602 939 697 12 10 80
67 151 126 348 287 651 599 796 818 111 167 187 357 235 587 25 117 28 157 29
309 0 147 -4 192 -23 280 -59 267 -221 471 -442 555 -98 37 -181 52 -315 54
-101 2 -136 -2 -220 -24 -54 -14 -105 -31 -112 -37 -7 -6 -13 -8 -13 -4 0 13
-145 -70 -240 -138 -91 -65 -297 -280 -443 -463 -76 -95 -141 -174 -146 -177
-4 -3 -8 29 -8 72 0 129 -15 209 -64 348 -112 318 -333 541 -623 631 -100 31
-252 39 -341 19z"/>
<path d="M14400 13510 c-9 -27 -10 -57 -5 -97 5 -32 9 -72 9 -90 l0 -32 115 0
c64 -1 157 -8 206 -16 160 -26 316 -37 380 -28 l60 9 -3 39 c-4 55 -46 136
-85 162 -77 53 -136 64 -397 74 -135 5 -250 11 -256 13 -6 2 -17 -13 -24 -34z"/>
<path d="M4898 13234 c-4 -3 -104 -12 -225 -20 -1024 -65 -1797 -341 -2147
-764 -128 -155 -204 -315 -241 -506 -8 -44 -15 -97 -15 -119 0 -34 -5 -43 -29
-58 -95 -56 -212 -235 -244 -372 -34 -151 -29 -402 13 -579 38 -157 116 -365
169 -445 9 -14 16 -39 17 -55 16 -340 17 -343 184 -1206 58 -300 63 -328 90
-525 43 -310 42 -451 -4 -601 -29 -98 -42 -122 -100 -196 -36 -44 -62 -65
-125 -96 -131 -66 -234 -66 -369 -1 -75 36 -126 80 -188 162 l-45 60 41 42
c23 23 78 64 123 90 173 102 232 162 243 246 17 133 -124 212 -345 194 -56 -5
-81 -4 -77 3 3 6 1 34 -5 64 -21 101 -91 185 -194 235 -150 71 -290 25 -330
-110 -8 -28 -15 -56 -15 -62 0 -7 -20 -2 -51 13 -41 21 -66 26 -128 26 -85 -1
-126 -16 -173 -67 -24 -28 -28 -39 -28 -94 0 -54 6 -75 42 -147 23 -47 39 -88
36 -91 -3 -4 -26 -1 -49 6 -70 19 -215 17 -278 -5 l-53 -18 4 -67 c6 -101 54
-196 139 -275 58 -54 89 -72 218 -129 83 -37 156 -67 162 -67 6 0 50 -19 99
-41 79 -37 90 -45 96 -73 24 -115 115 -282 217 -397 125 -142 326 -273 500
-325 261 -78 464 -76 698 6 94 34 99 32 99 -39 0 -47 55 -552 69 -641 40 -239
109 -628 141 -785 22 -104 49 -242 61 -305 12 -63 37 -191 56 -285 35 -174 49
-253 102 -550 70 -390 82 -479 101 -738 23 -313 42 -463 71 -562 28 -94 39
-113 117 -203 126 -146 260 -252 465 -369 71 -40 132 -73 136 -73 5 0 44 -16
87 -36 187 -85 515 -175 749 -205 306 -39 341 -42 595 -42 257 0 313 4 605 42
456 59 928 224 1265 439 96 62 247 181 302 238 36 39 36 39 48 169 15 175 45
433 75 667 14 106 30 238 36 293 14 130 86 670 104 782 8 49 19 138 25 198 6
61 15 135 20 165 10 55 80 537 120 825 11 83 36 251 55 375 19 124 44 293 55
375 11 83 27 193 35 245 28 175 47 304 58 396 l12 92 82 -33 c161 -66 238 -79
438 -79 207 1 265 12 443 89 147 63 259 140 380 262 147 148 243 301 302 485
31 97 60 228 61 282 0 28 12 40 137 131 164 121 315 267 359 348 64 117 93
245 79 341 -7 42 -10 47 -61 71 -29 15 -84 32 -122 38 l-68 12 3 58 c2 44 -2
70 -18 102 -29 59 -101 125 -138 125 -44 0 -121 -44 -192 -111 l-65 -61 -16
54 c-31 103 -80 164 -154 188 -125 41 -281 -81 -319 -250 -19 -84 -20 -118 -2
-192 l13 -58 -36 5 c-110 14 -145 14 -211 5 -125 -18 -200 -78 -200 -162 0
-105 72 -165 310 -262 36 -14 77 -36 92 -49 l28 -22 -19 -90 c-85 -399 -240
-565 -529 -565 -155 0 -301 51 -393 137 -56 52 -73 80 -83 133 -9 50 16 227
63 440 22 102 47 237 56 300 55 383 148 920 196 1129 52 226 123 592 144 746
23 165 23 452 0 560 -44 206 -124 342 -257 432 l-38 26 0 82 c0 94 -24 246
-50 323 -43 122 -155 249 -320 359 -91 61 -267 150 -370 188 -41 15 -118 43
-170 62 -96 35 -503 142 -615 162 -452 80 -716 114 -1020 131 -110 6 -224 15
-254 21 -58 10 -754 13 -763 3z m1012 -209 c804 -57 1477 -198 1820 -382 302
-161 494 -376 546 -609 34 -155 -26 -315 -175 -465 -205 -207 -510 -343 -951
-423 -532 -97 -1184 -100 -2285 -10 -1002 81 -1595 195 -1983 380 -137 64
-217 117 -295 193 -74 72 -111 130 -133 209 -23 82 -10 156 46 269 119 241
341 419 687 553 419 162 1079 272 1823 304 162 7 686 -4 900 -19z m2562 -1413
c122 -127 156 -278 91 -405 -93 -184 -425 -370 -907 -506 -357 -102 -593 -136
-1176 -171 -254 -15 -977 -12 -1255 5 -1017 64 -1901 242 -2555 515 -134 56
-405 190 -483 240 -56 35 -56 41 -11 140 32 71 67 115 114 146 l38 25 83 -54
c464 -302 1052 -475 1909 -561 637 -65 1810 -104 2290 -77 625 35 1031 128
1356 308 146 82 316 243 394 376 25 42 48 77 51 77 3 0 31 -26 61 -58z m-6185
-637 c816 -314 1624 -531 2343 -630 489 -68 1159 -71 1905 -9 952 78 1583 262
1990 579 l60 46 3 -48 c2 -27 -6 -100 -18 -163 -11 -62 -20 -135 -20 -161 l0
-48 -92 -74 c-250 -200 -543 -352 -918 -477 -980 -326 -2319 -366 -3555 -105
-630 133 -1148 323 -1550 568 -140 85 -135 80 -188 227 -61 170 -103 340 -83
340 2 0 57 -20 123 -45z m4799 -2060 c174 -54 272 -264 219 -470 -42 -158
-146 -257 -289 -273 -228 -26 -411 109 -448 331 -29 177 86 356 267 413 56 18
191 17 251 -1z m-2947 -29 c133 -36 208 -97 269 -218 60 -118 61 -225 6 -361
-36 -89 -71 -135 -144 -190 -86 -65 -148 -82 -285 -81 -228 1 -353 86 -420
286 -83 252 42 505 285 575 55 16 211 10 289 -11z"/>
<path d="M4920 12870 c-63 -4 -142 -12 -175 -18 -33 -6 -181 -25 -330 -42
-606 -69 -875 -128 -1088 -237 -112 -58 -187 -126 -226 -205 -27 -53 -31 -72
-31 -144 0 -111 24 -172 96 -252 162 -179 498 -321 999 -421 191 -38 338 -57
600 -76 932 -66 1704 -38 2309 86 447 91 726 234 826 421 30 55 35 74 38 155
4 82 2 97 -21 147 -95 206 -433 369 -967 466 -230 41 -479 62 -965 80 -154 6
-419 20 -589 30 -170 11 -320 19 -335 18 -14 0 -78 -4 -141 -8z m538 -164
c116 -18 278 -31 627 -51 663 -39 1220 -145 1487 -282 218 -112 263 -271 117
-412 -137 -131 -443 -213 -1009 -271 -113 -12 -304 -32 -425 -46 -288 -32
-466 -40 -579 -25 -164 22 -297 84 -675 313 -119 72 -322 187 -451 255 -295
157 -442 244 -550 324 l-85 63 124 18 c68 9 208 34 310 54 230 44 310 54 531
63 307 13 475 12 578 -3z m-1944 -233 c-6 -30 -57 -138 -128 -273 -25 -47 -47
-89 -50 -95 -8 -17 -74 61 -85 99 -26 94 80 230 217 281 51 19 53 18 46 -12z
m911 -406 c127 -66 247 -131 267 -144 21 -12 40 -23 42 -23 18 0 439 -250 432
-257 -10 -10 -501 38 -743 72 -367 53 -630 122 -845 222 l-77 36 30 59 c16 32
60 107 97 167 38 60 79 133 93 164 l24 55 225 -115 c124 -64 329 -170 455
-236z"/>
<path d="M7280 12082 c0 -12 19 -26 26 -19 2 2 -2 10 -11 17 -9 8 -15 8 -15 2z"/>
<path d="M2604 12151 c-58 -35 -71 -138 -30 -226 74 -160 336 -328 553 -354
l65 -8 15 36 c22 51 10 122 -33 211 -29 59 -57 94 -128 165 -50 50 -116 105
-147 123 -119 70 -234 91 -295 53z"/>
<path d="M7055 8536 c-86 -37 -114 -143 -56 -208 27 -30 34 -33 88 -32 35 0
71 7 91 18 60 31 87 105 62 170 -21 56 -115 83 -185 52z"/>
<path d="M4144 8439 c-63 -15 -97 -56 -102 -127 -4 -52 -1 -61 23 -90 24 -29
32 -32 83 -32 67 0 112 23 142 72 26 44 26 107 0 141 -17 22 -79 50 -100 46
-3 -1 -23 -5 -46 -10z"/>
<path d="M12500 11418 c0 -45 19 -184 34 -253 29 -129 128 -302 207 -361 41
-30 115 -64 140 -64 24 0 24 5 -1 135 -42 215 -116 378 -219 485 -54 55 -131
110 -156 110 -3 0 -5 -24 -5 -52z"/>
<path d="M13298 9932 c-1 -5 -28 -20 -59 -35 -110 -52 -256 -214 -328 -366
l-27 -58 -26 56 c-33 68 -125 182 -176 216 -70 46 -149 67 -254 69 -118 1
-138 -10 -186 -105 -45 -89 -59 -184 -43 -296 11 -79 58 -230 80 -257 7 -8
-15 -11 -82 -12 -238 -1 -455 -126 -550 -314 l-38 -76 -102 -38 c-360 -136
-641 -346 -784 -587 -33 -55 -39 -60 -62 -54 -14 3 -76 9 -138 12 -140 7 -231
-11 -362 -73 -267 -125 -441 -383 -444 -659 -1 -55 4 -125 12 -155 21 -85 74
-188 136 -263 l57 -69 -33 -36 c-19 -20 -37 -39 -40 -42 -3 -3 -45 -50 -94
-105 -160 -184 -214 -302 -222 -485 -5 -101 -2 -128 21 -222 26 -102 60 -206
128 -383 45 -119 84 -251 100 -335 13 -72 18 -253 8 -263 -9 -8 -123 19 -180
43 -143 61 -304 198 -407 346 l-41 60 44 24 c27 14 66 49 96 87 123 155 132
312 22 416 -32 30 -46 37 -81 37 -23 0 -61 -8 -85 -18 -89 -38 -94 -38 -112
16 -22 65 -99 174 -144 205 -94 66 -201 79 -247 32 -21 -20 -25 -34 -25 -82 0
-32 -3 -68 -6 -80 l-6 -22 -59 30 c-33 16 -79 32 -102 35 -99 14 -147 -93
-118 -266 5 -30 12 -63 16 -72 6 -14 2 -18 -18 -18 -55 0 -132 -35 -179 -80
l-48 -46 0 -80 c0 -69 4 -85 30 -130 35 -62 112 -132 189 -170 53 -27 63 -29
189 -30 l132 -1 125 -167 c296 -395 450 -531 718 -637 57 -22 211 -53 323 -64
l71 -7 6 -116 c7 -122 26 -307 76 -752 16 -146 35 -325 41 -399 l11 -135 66
-73 c114 -128 332 -307 523 -429 96 -62 331 -194 345 -194 4 0 62 -24 129 -54
300 -135 713 -239 1114 -281 160 -17 481 -19 620 -5 313 34 641 134 932 285
52 28 100 52 105 54 33 13 595 366 611 384 1 1 14 70 28 152 51 293 65 362
114 570 109 452 165 715 177 833 6 54 10 62 24 57 115 -48 124 -50 276 -50
141 1 157 3 260 34 61 18 124 37 140 42 61 18 266 136 334 191 89 72 141 139
221 281 107 190 153 239 330 353 88 56 163 124 196 176 36 57 33 137 -6 211
-47 85 -78 107 -155 107 -71 0 -68 -2 -80 83 -7 50 -48 114 -97 150 l-27 20
-68 -46 c-37 -26 -85 -53 -105 -62 l-38 -15 0 40 c0 50 -30 111 -66 135 -20
13 -41 16 -90 13 -108 -7 -161 -66 -192 -217 -13 -65 -20 -80 -32 -75 -51 21
-126 34 -202 34 l-87 0 -21 -57 c-52 -136 -1 -253 182 -421 46 -42 85 -79 86
-84 8 -18 -42 -99 -91 -150 -35 -36 -80 -68 -139 -97 -76 -38 -98 -45 -166
-49 -91 -5 -168 13 -222 53 -31 23 -34 29 -31 73 1 26 16 115 32 197 16 83 29
164 29 181 0 26 12 44 65 95 65 63 145 169 183 245 69 135 106 335 99 524 -6
151 -20 228 -72 388 -84 261 -300 513 -502 587 -26 10 -52 21 -56 25 -5 4 0
36 10 71 13 50 17 100 17 224 0 148 -2 167 -28 245 -40 121 -76 197 -133 277
-105 151 -233 272 -411 392 -85 57 -128 82 -233 138 l-36 19 38 32 c21 18 52
60 70 97 29 60 31 71 27 143 -5 96 -37 161 -118 243 -90 91 -196 139 -306 139
l-46 0 28 48 c91 154 128 268 129 397 0 135 -38 211 -137 269 -58 35 -62 36
-163 36 -57 0 -105 -4 -107 -8z m-1645 -1419 c15 -7 27 -19 28 -26 0 -9 2 -9
6 0 3 10 10 10 31 -1 78 -39 222 -75 314 -78 26 -1 45 -5 42 -10 -5 -8 -6 -13
-30 -128 -15 -74 -20 -256 -8 -308 25 -115 59 -168 129 -205 33 -17 57 -21
130 -21 118 1 177 7 162 16 -7 5 -8 8 -1 8 13 0 118 88 123 104 2 6 9 14 15
18 6 4 11 11 12 15 0 4 20 47 42 94 23 48 42 92 42 98 0 6 8 8 18 5 12 -4 13
-3 4 3 -13 10 -12 14 9 68 14 35 16 41 18 58 1 12 91 -80 91 -94 0 -4 6 -14
13 -21 30 -33 57 -79 52 -88 -4 -6 -1 -9 7 -8 7 2 12 -5 12 -14 -1 -10 2 -16
6 -13 11 7 81 -81 72 -90 -4 -5 -2 -5 4 -2 6 3 28 -6 49 -20 59 -40 119 -54
215 -52 62 2 94 8 118 22 17 10 32 15 32 11 0 -5 7 2 16 14 9 13 22 21 29 18
7 -2 12 3 11 12 0 10 5 16 14 14 8 -2 12 0 8 3 -4 4 0 22 9 39 25 46 27 60 27
191 1 98 -3 133 -22 192 -12 40 -22 76 -21 79 0 4 -3 10 -8 13 -4 3 -13 15
-20 27 -11 20 -10 21 33 11 24 -6 44 -14 44 -19 0 -5 5 -6 10 -3 10 6 140 -32
150 -44 3 -3 12 -7 20 -9 66 -12 303 -130 293 -145 -3 -6 -1 -7 6 -3 7 5 44
-13 91 -44 58 -38 77 -56 73 -68 -4 -13 -2 -14 4 -4 8 10 21 2 58 -32 26 -26
51 -46 54 -47 11 -1 126 -141 123 -150 -1 -5 2 -9 8 -9 14 0 42 -59 34 -72 -4
-7 -3 -8 5 -4 14 9 45 -59 35 -76 -4 -6 -3 -8 3 -5 13 8 40 -79 53 -172 13
-93 -9 -278 -38 -326 -4 -5 -8 -18 -9 -28 -2 -10 -12 -40 -24 -67 -30 -71 -25
-82 48 -98 71 -15 229 -92 226 -109 -2 -7 3 -10 11 -7 7 3 16 -2 19 -10 4 -9
12 -16 18 -16 16 0 139 -121 139 -137 0 -7 8 -17 18 -22 19 -10 105 -155 105
-177 0 -8 4 -14 8 -14 12 0 68 -183 79 -258 20 -139 7 -305 -33 -418 -35 -96
-113 -228 -130 -217 -5 3 -7 1 -4 -4 9 -14 -93 -115 -163 -163 -77 -52 -159
-92 -172 -84 -7 5 -8 3 -3 -6 6 -10 3 -12 -13 -8 -13 4 -19 2 -16 -6 4 -10
-82 -53 -98 -48 -5 1 -8 -2 -8 -7 0 -7 -28 -19 -60 -25 -3 -1 -25 -11 -50 -23
-25 -12 -54 -24 -65 -25 -11 -2 -25 -7 -32 -11 -15 -10 -183 -66 -208 -70 -11
-1 -25 -6 -30 -9 -29 -18 -444 -112 -453 -103 -3 3 -11 0 -18 -6 -8 -6 -21 -8
-30 -5 -9 4 -22 2 -28 -3 -16 -13 -316 -53 -496 -67 -47 -3 -101 -8 -120 -9
-219 -21 -733 -13 -970 15 -236 27 -286 34 -415 56 -142 24 -317 60 -345 71
-8 3 -21 5 -27 4 -7 -1 -13 3 -13 9 0 6 -4 9 -10 5 -17 -11 -375 100 -485 150
-27 12 -66 28 -85 36 -77 29 -235 111 -232 120 1 6 -2 8 -8 4 -12 -7 -180 78
-221 112 -16 14 -29 22 -29 19 0 -18 -133 80 -222 163 -48 46 -65 67 -56 73
10 6 9 8 -2 8 -20 0 -54 56 -44 72 4 6 3 8 -3 5 -5 -3 -20 24 -34 61 -19 55
-24 86 -24 172 0 90 4 116 28 185 25 69 77 170 96 185 3 3 19 22 34 42 15 21
33 37 40 35 7 -1 11 4 10 10 -4 19 116 114 194 153 37 19 71 39 74 43 8 11 4
39 -9 65 -7 12 -10 22 -7 22 4 0 -1 7 -9 16 -18 18 -22 39 -4 28 7 -4 8 -3 4
5 -4 6 -10 9 -14 7 -7 -4 -108 123 -185 233 -21 29 -36 60 -33 68 3 8 1 11 -4
8 -23 -14 -79 161 -65 205 3 11 8 32 11 47 6 36 45 123 56 123 4 0 8 6 8 14 0
19 109 118 122 110 6 -4 8 -3 5 3 -4 6 16 22 43 36 33 17 50 22 54 14 2 -7 5
-4 5 5 1 17 76 51 136 61 17 3 48 9 70 14 79 16 356 5 362 -15 2 -4 19 -7 39
-6 35 1 38 3 59 60 32 86 74 166 84 159 5 -2 8 3 7 13 0 9 5 16 12 14 8 -1 11
2 7 8 -3 5 -1 10 4 10 6 0 10 4 9 9 -4 13 92 122 102 116 4 -3 10 2 14 10 16
41 208 157 401 241 124 54 140 56 198 27z m-1674 -3121 c103 -86 203 -141 288
-161 l51 -13 6 -71 c3 -40 10 -153 16 -252 27 -459 76 -987 168 -1812 l37
-331 -26 14 c-15 7 -69 50 -120 94 -52 45 -126 96 -165 116 l-71 36 -7 169
c-13 341 -41 609 -170 1654 -62 498 -72 595 -61 595 4 0 28 -17 54 -38z m4776
-333 c-31 -355 -100 -744 -236 -1344 -69 -301 -189 -894 -189 -931 0 -2 -6 -4
-12 -4 -7 0 -37 -12 -67 -25 l-54 -26 6 283 c9 412 29 688 112 1523 24 248 45
465 47 483 3 32 5 33 158 95 85 34 175 74 200 88 25 14 46 25 47 24 2 -1 -4
-75 -12 -166z m-4117 -10 c80 -34 176 -69 214 -78 79 -19 74 -4 83 -206 3 -71
17 -299 31 -505 62 -954 105 -1792 92 -1806 -10 -9 -77 24 -219 107 l-136 80
-12 152 c-71 899 -150 1773 -196 2167 -17 141 -17 150 -9 150 3 0 71 -27 152
-61z m3547 -86 c-8 -58 -92 -1012 -110 -1243 -22 -298 -53 -782 -61 -950 l-7
-145 -51 -49 c-90 -87 -291 -204 -313 -182 -4 4 -1 415 5 914 7 499 12 1050
12 1224 l0 316 48 16 c26 8 108 31 182 50 74 19 167 46 205 60 95 33 96 33 90
-11z m-2883 -98 c185 -37 278 -61 278 -73 0 -24 92 -2137 101 -2335 7 -130 9
-240 5 -244 -7 -7 -125 26 -331 94 l-140 45 -2 317 c-3 337 -19 679 -58 1251
-23 342 -37 566 -51 848 -6 117 -5 132 9 132 9 0 94 -16 189 -35z m2174 -107
c5 -40 9 -612 9 -1271 0 -1178 0 -1199 -19 -1209 -52 -28 -372 -125 -381 -116
-11 11 -45 1744 -45 2289 l0 316 108 12 c59 7 148 21 197 30 132 27 121 31
131 -51z m-596 -550 c0 -734 22 -1686 46 -2004 6 -79 5 -81 -17 -88 -13 -4
-117 -10 -230 -13 l-206 -6 -7 124 c-4 68 -11 192 -16 274 -32 513 -99 2219
-88 2231 2 2 94 8 204 14 109 6 217 15 239 19 83 18 75 79 75 -551z m-905 543
c201 -12 203 -13 209 -64 3 -23 12 -233 21 -467 33 -902 84 -1851 110 -2047
l6 -42 -48 5 c-26 2 -122 11 -212 19 -90 8 -165 16 -167 17 -3 4 -31 264 -43
418 -18 209 -40 646 -51 1005 -14 468 -29 875 -36 1033 l-7 132 34 0 c19 -1
102 -5 184 -9z"/>
<path d="M11420 8391 c-107 -34 -251 -147 -290 -226 -8 -16 -22 -41 -31 -55
-9 -14 -31 -53 -49 -88 -28 -56 -30 -66 -20 -96 6 -19 22 -41 35 -50 34 -22
87 -20 111 4 30 30 44 48 44 57 0 11 42 92 57 112 7 9 25 34 42 57 28 39 113
97 163 109 71 18 101 97 57 149 -26 29 -77 41 -119 27z"/>
<path d="M10259 7750 c-42 -12 -159 -93 -211 -144 -25 -25 -56 -66 -67 -89
-28 -58 -28 -152 0 -211 25 -55 183 -216 222 -227 47 -13 99 10 120 54 17 36
17 39 -2 75 -11 21 -39 56 -63 77 -74 67 -107 112 -101 137 7 27 60 78 122
119 41 27 52 29 138 29 89 0 95 1 118 26 33 36 32 76 -2 114 -23 26 -39 33
-93 40 -77 11 -145 11 -181 0z"/>
<path d="M11407 7603 c-46 -7 -61 -50 -67 -188 l-5 -120 -88 -3 c-85 -3 -87
-2 -97 22 -5 14 -11 40 -13 58 -3 18 -8 42 -12 53 -4 11 -11 32 -17 47 -5 15
-18 34 -29 44 -10 9 -17 19 -15 23 2 3 -15 7 -38 8 -37 3 -44 0 -54 -22 -19
-41 -13 -105 14 -170 14 -33 28 -67 30 -76 4 -10 -18 -32 -66 -68 l-71 -53
-30 28 c-16 15 -29 33 -29 38 0 20 -73 61 -109 61 -51 1 -65 -22 -52 -83 9
-42 41 -119 41 -99 0 4 6 2 14 -5 8 -7 11 -17 8 -22 -3 -5 -1 -6 5 -3 5 3 27
-13 49 -36 37 -38 40 -45 33 -77 -18 -83 -20 -176 -5 -245 8 -38 12 -74 9 -80
-4 -5 -3 -7 2 -3 4 4 17 -12 29 -35 11 -23 42 -64 68 -90 27 -27 43 -45 36
-41 -8 4 -10 3 -5 -2 5 -5 14 -9 20 -10 21 -1 97 -37 97 -45 0 -5 7 -6 15 -3
8 4 15 2 15 -2 0 -5 56 -11 124 -12 103 -3 135 0 195 18 39 11 77 18 84 14 6
-4 9 -4 5 1 -5 5 19 24 51 44 65 40 122 103 154 168 11 23 23 40 26 38 7 -3 8
8 17 140 5 74 2 105 -15 170 -12 44 -24 89 -26 99 -4 17 29 86 41 86 3 0 2 -5
-2 -12 -4 -7 -3 -8 5 -4 6 4 9 12 5 17 -3 5 7 24 22 42 35 41 54 88 54 131 0
56 -15 83 -49 88 -16 2 -29 2 -29 -1 1 -3 -24 -32 -55 -64 -32 -33 -57 -64
-57 -70 0 -5 -11 -29 -25 -52 l-24 -42 -51 24 -50 24 0 158 0 159 -30 12 c-16
7 -27 16 -24 21 3 5 4 8 2 8 -2 -1 -15 -4 -31 -6z m19 -502 c116 -52 165 -120
172 -240 5 -94 -20 -162 -79 -215 -202 -183 -554 -81 -588 170 -12 84 3 135
55 193 48 53 97 81 184 106 74 20 192 14 256 -14z"/>
<path d="M11109 7005 c-42 -23 -62 -77 -56 -152 6 -82 16 -93 84 -93 48 0 58
4 83 30 45 48 52 148 14 208 -11 17 -24 22 -57 22 -23 -1 -54 -7 -68 -15z"/>
<path d="M13451 7484 c0 -11 3 -14 6 -6 3 7 2 16 -1 19 -3 4 -6 -2 -5 -13z"/>
<path d="M13495 7477 c-3 -12 -5 -69 -3 -126 l3 -103 -55 -17 c-30 -10 -73
-27 -94 -39 -22 -12 -43 -19 -48 -16 -4 3 -8 0 -8 -5 0 -28 -22 -4 -56 59 -45
87 -92 130 -139 130 -42 0 -55 -20 -55 -84 0 -48 18 -86 83 -173 38 -51 64
-135 37 -118 -8 5 -11 4 -7 -1 3 -5 -3 -41 -14 -79 -28 -99 -23 -219 13 -297
15 -32 24 -58 20 -58 -3 0 4 -7 16 -16 14 -9 21 -22 18 -31 -3 -8 -2 -12 3 -9
12 8 43 -29 34 -39 -5 -4 -3 -5 4 -1 6 3 32 -7 57 -24 80 -55 148 -73 271 -74
116 0 185 5 180 15 -5 6 66 34 78 31 5 -1 6 2 3 7 -4 5 2 12 13 16 32 10 92
84 124 154 27 59 31 78 35 189 4 121 5 123 33 143 16 11 34 17 40 13 7 -4 9
-3 6 3 -4 6 11 23 34 38 22 16 47 41 56 56 9 15 19 26 22 24 3 -1 7 11 8 28 1
18 4 41 7 52 3 15 -5 26 -30 42 -19 13 -33 19 -30 14 3 -5 -12 -11 -34 -15
-29 -4 -55 -21 -99 -62 -34 -31 -61 -51 -61 -45 0 5 -14 26 -32 46 l-31 36 18
37 c40 84 56 192 34 234 -6 11 -26 26 -46 34 -62 26 -90 -8 -109 -136 -11 -75
-17 -80 -84 -80 -75 0 -80 8 -80 135 0 125 -5 135 -75 135 -48 0 -55 -3 -60
-23z m225 -407 c103 -29 170 -239 126 -392 -22 -74 -42 -98 -117 -138 -70 -37
-158 -49 -226 -31 -54 15 -137 90 -170 155 -31 62 -41 156 -23 221 24 87 117
164 224 185 59 11 145 11 186 0z"/>
<path d="M13418 6971 c-56 -45 -74 -164 -34 -226 24 -37 75 -34 122 7 45 40
64 82 64 146 0 65 -16 84 -76 89 -39 4 -54 1 -76 -16z"/>
<path d="M14660 6762 c-24 -12 -38 -28 -46 -52 -15 -44 -3 -76 39 -109 141
-112 197 -225 197 -403 0 -82 -4 -106 -25 -154 -14 -31 -25 -62 -25 -69 0 -8
-4 -15 -9 -17 -19 -6 -29 -84 -15 -116 12 -30 58 -62 87 -62 29 0 79 33 89 59
12 30 41 95 71 161 18 40 21 63 19 194 -1 167 -13 220 -70 331 -46 87 -174
222 -221 231 -17 4 -31 10 -31 15 0 14 -22 11 -60 -9z"/>
<path d="M10208 6680 c-39 -10 -120 -56 -126 -71 -2 -5 -11 -9 -21 -9 -49 0
-197 -226 -217 -330 -4 -19 -11 -41 -17 -47 -5 -7 -10 -55 -11 -105 -1 -71 3
-103 17 -133 34 -73 51 -105 59 -105 5 0 8 -6 8 -14 0 -7 15 -25 33 -39 17
-14 41 -33 52 -44 25 -23 154 -113 162 -113 4 0 14 -6 22 -14 31 -27 114 -66
143 -66 64 0 108 46 108 112 0 34 -55 98 -85 98 -8 0 -15 3 -15 8 0 4 -17 16
-37 27 -37 20 -51 29 -76 51 -7 6 -17 13 -23 15 -44 17 -107 72 -133 114 -45
74 -39 147 21 275 31 66 87 149 100 150 4 0 17 8 28 17 11 10 50 33 87 53 94
49 114 95 68 154 -17 22 -90 30 -147 16z"/>
<path d="M9969 6633 c-13 -16 -12 -17 4 -4 9 7 17 15 17 17 0 8 -8 3 -21 -13z"/>
<path d="M11918 6400 c-14 -10 -29 -16 -33 -12 -5 4 -5 1 -1 -5 4 -7 1 -23 -5
-35 -17 -31 -13 -245 6 -343 8 -41 23 -96 34 -121 12 -25 18 -51 14 -58 -3 -6
-2 -8 2 -4 10 10 55 -63 48 -77 -4 -5 -3 -7 1 -3 4 3 33 -24 63 -60 66 -79 79
-93 68 -72 -4 8 5 3 21 -11 16 -14 46 -37 66 -51 21 -14 36 -27 33 -29 -2 -3
4 -5 13 -6 9 -1 49 -14 87 -29 62 -24 84 -28 185 -28 120 -1 163 10 233 57 15
10 27 16 27 13 0 -3 27 20 60 51 33 31 58 58 55 61 -3 3 1 12 9 21 20 24 63
138 76 206 6 33 13 66 15 72 8 25 13 319 6 365 -4 25 -16 59 -27 75 -10 15
-18 30 -17 34 3 9 -73 2 -95 -10 -24 -13 -38 -52 -27 -78 11 -29 5 -235 -9
-325 -28 -169 -114 -328 -170 -312 -15 4 -17 3 -7 -4 25 -18 -58 -37 -159 -37
-77 1 -105 5 -147 24 -144 64 -247 189 -286 347 -18 72 -18 68 -17 228 1 150
-8 176 -64 176 -18 0 -45 -9 -58 -20z"/>
<path d="M17370 5282 c0 -24 -5 -63 -11 -86 -6 -24 -9 -54 -7 -67 3 -23 5 -22
22 11 22 40 26 134 8 165 -10 17 -11 14 -12 -23z"/>
</g>
</svg>
